inDegrees=yes
name=ik_lifting_orientations
DataType=double
version=3
OpenSimVersion=4.5-2024-01-10-34fd6af
endheader
time	pelvis_tilt	pelvis_list	pelvis_rotation	pelvis_tx	pelvis_ty	pelvis_tz	hip_flexion_r	hip_adduction_r	hip_rotation_r	knee_angle_r	knee_angle_r_beta	ankle_angle_r	subtalar_angle_r	mtp_angle_r	hip_flexion_l	hip_adduction_l	hip_rotation_l	knee_angle_l	knee_angle_l_beta	ankle_angle_l	subtalar_angle_l	mtp_angle_l	lumbar_extension	lumbar_bending	lumbar_rotation	arm_flex_r	arm_add_r	arm_rot_r	elbow_flex_r	pro_sup_r	wrist_flex_r	wrist_dev_r	arm_flex_l	arm_add_l	arm_rot_l	elbow_flex_l	pro_sup_l	wrist_flex_l	wrist_dev_l
1.79	0.6143193786842593	0.5870054144449122	-92.98636088836884	0	0.9399999998679526	0	45.35168933392949	-10.51228698142104	0	59.99265777164405	1.047069405137353	-5.199442996904333	0	0	45.35168933392949	-10.51228698142104	0	59.99265777164405	1.047069405137353	-5.199442996904333	0	0	6.856487567404871	-7.454106890166734	-9.144708716763937	118.5385115273051	25.7583971349898	1.775420416900163	13.14341771996154	1.519952272246268	0	0	0	-12.24425279460666	0	88.51009832769527	1.519952272246268	0	0
1.8	0.7186575986069038	0.7022896369996169	-91.2236393581836	0	0.9399999998679526	0	45.35150470741348	-10.51134699586978	0	59.99266085353266	1.047069458926456	-5.198965716197239	0	0	45.35150470741348	-10.51134699586978	0	59.99266085353266	1.047069458926456	-5.198965716197239	0	0	6.853279648463052	-7.884527848875821	-10.91961007546435	119.3315516438079	26.77947505494	1.973308684899271	11.53859739474473	1.519397029615399	0	0	0	-12.24499369910908	0	88.5106425236953	1.519397029615399	0	0
1.81	0.8912293826252528	0.9087145490664208	-89.00079581808544	0	0.9399999998679526	0	45.35132810430861	-10.51045083624142	0	59.99266380644932	1.047069510464575	-5.1985111232684	0	0	45.35132810430861	-10.51045083624142	0	59.99266380644932	1.047069510464575	-5.1985111232684	0	0	6.786100513106801	-8.393684853967649	-13.34468622745779	120.3444497038912	27.87087491867903	2.182362883198881	9.882532845791184	1.518865509339763	0	0	0	-12.24570338150108	0	88.51116346932123	1.518865509339763	0	0
1.82	1.131045521153376	1.204022988959213	-86.71701072774835	0	0.9399999998679526	0	45.35095918521166	-10.50859674843091	0	59.99266999735195	1.047069618516209	-5.197573535677094	0	0	45.35095918521166	-10.50859674843091	0	59.99266999735195	1.047069618516209	-5.197573535677094	0	0	6.733367539694533	-8.979531884309409	-15.90644235755494	120.6579019781009	28.35641007427247	2.317648567690766	9.07283603933872	1.517753220954493	0	0	0	-12.24719036178734	0	88.51225362871205	1.517753220954493	0	0
1.83	1.264067858182809	1.420493841897655	-83.45997306117066	0	0.9399999998679526	0	45.35058026148022	-10.50670601586462	0	59.9926763739931	1.047069729809593	-5.196619612388906	0	0	45.35058026148022	-10.50670601586462	0	59.9926763739931	1.047069729809593	-5.196619612388906	0	0	6.465555466208547	-9.585241783648442	-19.29657370297567	120.3928569758449	28.39819609843309	2.822097350098317	8.641097292041207	1.516609181729182	0	0	0	-12.24872135413123	0	88.51337490734095	1.516609181729182	0	0
1.84	1.205745965015399	1.385988309943014	-82.44967838611409	0	0.9399999998679526	0	45.35044872857344	-10.50604603830571	0	59.99267858316657	1.047069768366943	-5.196286040464877	0	0	45.35044872857344	-10.50604603830571	0	59.99267858316657	1.047069768366943	-5.196286040464877	0	0	6.284909012346295	-9.69444391560063	-20.52240593845076	120.1883088157008	28.56298874482644	3.216087918611529	8.68847356841745	1.51621239961404	0	0	0	-12.24925206709565	0	88.51376379548587	1.51621239961404	0	0
1.85	1.173114162169116	1.354677727255958	-81.79178482940611	0	0.9399999998679526	0	45.35026779697355	-10.50513379079265	0	59.99268160722549	1.047069821146728	-5.195824681581845	0	0	45.35026779697355	-10.50513379079265	0	59.99268160722549	1.047069821146728	-5.195824681581845	0	0	6.1268536429356	-9.72983836093128	-21.24517328417069	118.5747284965348	27.975118343571	4.196754391499338	10.25701293763605	1.515667566108702	0	0	0	-12.24997967487856	0	88.51429778949552	1.515667566108702	0	0
1.86	1.165515067553295	1.315746916180654	-81.64292721957951	0	0.9399999998679526	0	45.35020110820605	-10.50479764079294	0	59.99268272157619	1.047069840595817	-5.195654712552335	0	0	45.35020110820605	-10.50479764079294	0	59.99268272157619	1.047069840595817	-5.195654712552335	0	0	6.066301446801069	-9.80434858235979	-21.62387648454539	118.241484021329	28.20774149220855	4.427854594017726	10.34786508263673	1.515466754482438	0	0	0	-12.25024784115624	0	88.5144946059623	1.515466754482438	0	0
1.87	1.110433189321439	1.293806455021896	-81.43888349637939	0	0.9399999998679526	0	45.35009443529547	-10.50425922469571	0	59.99268450163849	1.047069871663765	-5.195382425812459	0	0	45.35009443529547	-10.50425922469571	0	59.99268450163849	1.047069871663765	-5.195382425812459	0	0	6.044460900772624	-9.845006865450978	-22.08295124987088	117.7691542485199	29.23908544393312	5.213238369250278	10.33261160893149	1.515145697477223	0	0	0	-12.25067640647931	0	88.51480927551179	1.515145697477223	0	0
1.88	1.090241418457083	1.281122985435065	-81.17121008854822	0	0.9399999998679526	0	45.34999038239881	-10.503735279556	0	59.99268624027962	1.047069902008777	-5.195117629108589	0	0	45.34999038239881	-10.503735279556	0	59.99268624027962	1.047069902008777	-5.195117629108589	0	0	6.012589103001358	-9.894361990551461	-22.71624657083807	117.5274441348074	30.05004056693647	5.336778905677386	10.16009055379421	1.514832344064464	0	0	0	-12.25109488502317	0	88.51511639474195	1.514832344064464	0	0
1.89	1.069808425875218	1.264220931799303	-80.58306021618645	0	0.9399999998679526	0	45.34991737754477	-10.50337388770855	0	59.99268747571663	1.047069923571221	-5.194935636761275	0	0	45.34991737754477	-10.50337388770855	0	59.99268747571663	1.047069923571221	-5.194935636761275	0	0	5.881726823446913	-10.00468281330624	-23.61881605943714	117.2350761259074	30.2116253179792	5.520615009731504	10.58177657696652	1.514611391014725	0	0	0	-12.25139120295932	0	88.5153329519738	1.514611391014725	0	0
1.9	1.063910590694205	1.259779253120233	-79.58700833753466	0	0.9399999998679526	0	45.34983091673433	-10.50294047156001	0	59.99268892368098	1.047069948842966	-5.19471687300769	0	0	45.34983091673433	-10.50294047156001	0	59.99268892368098	1.047069948842966	-5.19471687300769	0	0	5.761895217768032	-10.3281641986897	-24.99026044031987	116.2976706382537	29.95081208629009	5.942516594990212	10.88493727004677	1.514350752766241	0	0	0	-12.25173955611935	0	88.51558840482393	1.514350752766241	0	0
1.91	1.0365044018007	1.251717245925293	-78.52898399153248	0	0.9399999998679526	0	45.34971734066609	-10.50237043522325	0	59.99269082333636	1.047069981998207	-5.194429112232372	0	0	45.34971734066609	-10.50237043522325	0	59.99269082333636	1.047069981998207	-5.194429112232372	0	0	5.604970512319897	-10.52097940156197	-26.30981834558989	115.0265084978702	29.3854682651218	6.435903661399307	11.42565024911072	1.514008525498103	0	0	0	-12.25219678234711	0	88.51592382347329	1.514008525498103	0	0
1.92	0.9259834365298145	1.152866258785364	-77.94597386951303	0	0.9399999998679526	0	45.34953773093141	-10.50146628739585	0	59.99269381872548	1.04707003427761	-5.193972506249874	0	0	45.34953773093141	-10.50146628739585	0	59.99269381872548	1.04707003427761	-5.193972506249874	0	0	5.3564683087986	-10.22699794466502	-26.74961311262053	113.9246455530747	28.89268674834223	7.252715216612406	11.43220827403525	1.513467890339801	0	0	0	-12.25291843509074	0	88.5164537026572	1.513467890339801	0	0
1.93	0.7729013426623198	0.9516193181029355	-78.57822527079867	0	0.9399999998679526	0	45.34932457192612	-10.50039482214468	0	59.99269737426741	1.047070096333523	-5.193431731214587	0	0	45.34932457192612	-10.50039482214468	0	59.99269737426741	1.047070096333523	-5.193431731214587	0	0	5.243858804593494	-9.854634814220189	-26.21815314601278	112.8933618382608	28.82841766478252	7.973590717594059	11.48279492352973	1.512826145641568	0	0	0	-12.25377515771479	0	88.51708267980763	1.512826145641568	0	0
1.94	0.5413048885360452	0.6607361058215893	-79.41370477904458	0	0.9399999998679526	0	45.34919497113754	-10.49974662003469	0	59.99269954291861	1.047070134183627	-5.193104984346421	0	0	45.34919497113754	-10.49974662003469	0	59.99269954291861	1.047070134183627	-5.193104984346421	0	0	5.119427674763743	-9.575363288651845	-25.76360487788902	112.4527177114887	29.21999669097856	8.246234964171999	11.46802550211103	1.512435445768222	0	0	0	-12.25429731046874	0	88.51746560671099	1.512435445768222	0	0
1.95	0.3256234947906653	0.4428273828358	-79.76876233656489	0	0.9399999998679526	0	45.34913582736989	-10.49945131024602	0	59.99270053343518	1.047070151471402	-5.19295619672369	0	0	45.34913582736989	-10.49945131024602	0	59.99270053343518	1.047070151471402	-5.19295619672369	0	0	5.083306258057063	-9.417567933145278	-25.71013642147377	112.1752702307412	28.76609276842002	7.401678352020363	11.72851189514889	1.512257079104602	0	0	0	-12.25453576320826	0	88.51764042477527	1.512257079104602	0	0
1.96	0.1631789720193601	0.2037606007439573	-79.86208172664981	0	0.9399999998679526	0	45.34896507882559	-10.49859606448793	0	59.99270338421173	1.047070201226839	-5.192525113723947	0	0	45.34896507882559	-10.49859606448793	0	59.99270338421173	1.047070201226839	-5.192525113723947	0	0	4.929510090583525	-9.4179246900456	-25.89604906125883	112.9259001051955	28.69463187243852	6.590145023349126	11.06889973607693	1.511742710614801	0	0	0	-12.25522273328183	0	88.51814455989211	1.511742710614801	0	0
